<?xml version="1.0" encoding="utf-8"?>
<!-- Generator: Adobe Illustrator 28.2.0, SVG Export Plug-In . SVG Version: 6.00 Build 0)  -->
<svg version="1.1"
	 id="svg2" xmlns:inkscape="http://www.inkscape.org/namespaces/inkscape" xmlns:cc="http://creativecommons.org/ns#" xmlns:svg="http://www.w3.org/2000/svg" xmlns:sodipodi="http://sodipodi.sourceforge.net/DTD/sodipodi-0.dtd" xmlns:rdf="http://www.w3.org/1999/02/22-rdf-syntax-ns#" xmlns:dc="http://purl.org/dc/elements/1.1/" inkscape:version="0.48.2 r9819"
	 xmlns="http://www.w3.org/2000/svg" xmlns:xlink="http://www.w3.org/1999/xlink" x="0px" y="0px" viewBox="0 0 738.5 808.2"
	 style="enable-background:new 0 0 738.5 808.2;" xml:space="preserve">
<style type="text/css">
	.st0{fill:#3E2E50;}
</style>
<sodipodi:namedview  bordercolor="#666666" borderopacity="1" fit-margin-bottom="10" fit-margin-left="10" fit-margin-right="10" fit-margin-top="10" gridtolerance="10" guidetolerance="10" id="namedview8" inkscape:current-layer="svg2" inkscape:cx="356.21327" inkscape:cy="503.92956" inkscape:pageopacity="0" inkscape:pageshadow="2" inkscape:window-height="837" inkscape:window-maximized="1" inkscape:window-width="1600" inkscape:window-x="-8" inkscape:window-y="-8" inkscape:zoom="0.55124088" objecttolerance="10" pagecolor="#ffffff" showgrid="false">
	</sodipodi:namedview>
<path id="path6" inkscape:connector-curvature="0" class="st0" d="M445.4,10c20.9,0.3,41.7,1.3,62.6,2.3c20.4,1.4,40.9,0,61.3-0.4
	c-0.2,6.8,0.1,13.7-0.5,20.5c-0.4,7-1.4,14.2,0.5,21.1c5.2-1.5,10.3-3.2,15.6-4.1c8.5-2.9,16.6-6.8,25-9.9
	c9.4-1.3,17.7-7.8,27.5-7.1c3.1,5.9,10.2,8.3,12.5,14.7c3.7,4.5,8.8,8,11.2,13.5c8,7.1,13.1,17,21.2,24.1c2.2,5,6.1,8.8,10.1,12.4
	c2.4,3.8,4.4,8,8.1,10.8c3.2,2.3,4.6,6.1,6.7,9.2c4,3.5,7.6,7.6,10.1,12.4c3.2,3.7,5.6,7.9,8.2,11.9c3.2,4.2,2.5,9.9,3,14.9
	c-1.1,9.1-0.1,18.4-1.2,27.5c-3.3,36.7-7,73.4-10.6,110c-0.3,9,0.2,18-0.2,27c-3.6,4.1-8.6,6.9-11.4,11.7c-0.7,1.4-2.1,2-3.4,2.7
	c-5.7,2.7-9.6,8.2-15.6,10.4c-10.2,3.8-19.2,10.8-30.1,12.5c-12,4.1-24.2,8.3-36.9,9.5c-2.7-0.1-6.6,0.8-8-2.3
	c-2.5-5-6.8-8.8-8.1-14.3c-3.6-5.6-8-10.6-10.7-16.8c-3.4-7.5-10-13-12.8-20.9c-2.7-3.9-5.3-7.9-7.8-12c2.7-0.2,5.8,0.7,8.2-1.2
	c2-0.1,4-0.1,6-0.1c2.9,1.9,5.4,4.4,7,7.5c1.8,3.9,5.9,5.7,8.4,8.9c2.3,2.4,3.3,5.9,6.3,7.7c3.8,2.8,6.4,6.7,9.4,10.2
	c5.5,1.9,8.3-4.8,10.5-8.6c4.1-4.4,8.5-9,10.2-15c0.8-60.8-0.3-121.7-6.8-182.2c-1.1-13.8-4.3-27.4-4.6-41.2
	c-0.7-4.8-2-9.6-2.4-14.4c-2.4-2.1-5.3-4.6-8.7-3.6c-6.7,1.4-13.2,3.7-20.1,3.4c-8.8,2-17.6,3.8-26,7.2c-1.3,7.5-0.7,15.1-0.8,22.7
	c-0.2,26.2,0.5,52.5,0.3,78.7c-0.1,38.3,0.6,76.7,0.3,115c2.6,55.5,6.8,110.9,10.7,166.3c0.7,6.7,0.7,13.4,0.6,20.2
	c0.2,2.3-2,3.7-3.1,5.4c-3.5-5.3-6.8-10.8-8.8-16.8c-2.7-7.5-8.1-13.7-10.6-21.3c-2.8-7.5-7.5-14.1-10.8-21.3
	c-0.9,71.2,0.3,142.4-0.7,213.6c-5.1-2.2-7.4-7.4-10.2-11.8c-1.9-9.4-9.5-16.3-12.3-25.4c-1.8-5.5-5.9-9.8-8.2-15.1
	c-0.6,14.6-2.6,29-2.7,43.6c0.5,13.4-1.3,26.7-2.2,40c-2.5,31.7-5.1,63.5-8.3,95.2c-1.6,9.8,0.6,20-3.4,29.4
	c-3.2-13.9-5-28.1-7.8-42.1c-1.2-5.2-0.4-10.7-1.5-15.9c-3.4-18.4-6.6-36.9-10.1-55.3c-0.8-4.4-0.2-9-1.1-13.4c-3.5-19-7-38-10.4-57
	c0.2-9.6-2.4-18.9-4-28.2c-2.4-12.9-4.8-25.7-7.2-38.6c-0.5-4.5-0.2-9.2-1.2-13.7c-3.1-16.3-6.1-32.7-9.2-49
	c-1.8-7-0.8-14.4-2.6-21.4c2.1,3.7,4.9,7.1,8.5,9.4c3.8,2.1,4.6,6.9,8.2,9.3c3.5,2.3,6.5,5.4,8.7,9c1.8,0.1,2.5-0.7,2.2-2.6
	c-1-12.5-4-24.9-3.7-37.5c-3.1-23.2-6.8-46.3-10.7-69.3c-0.9-4.4-0.1-8.8-1-13.2c-3.6-20.6-7.2-41.2-11.3-61.7
	c-12.6-2.6-25.9,1.2-38,5.3c-3.9,1-7.4,3.4-11.4,4c-2.1,0.3-4.2,1.2-6,2.5c-1.6,3.5-0.6,7.5-0.8,11.2c-0.2,40.8,0.5,81.6,0.3,122.4
	c0.6,42.1,0.2,84.2,0.3,126.3c-0.6,17.9,1.5,36.5,9.6,52.7c2.5,6.4,6.3,12.8,12.4,16.4c3.4,3.1,7.8,4.7,11.5,7.4
	c0.4,1.9,0.4,3.9,0.1,5.8c-1.9,1.9-4.7,2.4-7.2,1.8c-11.7-2-23.3-4.6-35.2-4.3c-37.7-4.4-75.9-6.4-113.7-1.6
	c-2.4-0.2-2.1-2.9-2.7-4.6c-0.4-2.4-2.3-4.1-3.6-6.1c5-4,10.3-7.4,15.7-10.7c3.6-3.9,7.4-7.8,11.1-11.7c1.5-4.4,4-8.5,5.9-12.8
	c3.7-10.9,6.6-22.2,6.2-33.8c4.9-50.3,4.5-100.9,2.9-151.3c-0.4-17.6-1.8-35.2-3-52.8c-4.8,3.5-9.5,7.4-14.4,10.9
	c-5.4,1-9.3,5.1-14.2,7.1c-4.8,2.1-9.1,5.3-14.5,5.5c-9.6,4.2-19.5,7.5-29.5,10.4c-4.9,0.1-9.6,1.2-14.2,2.4
	c0.6,58.8,0.9,117.6,1.8,176.4c-0.5,5.9,3.2,10.7,5.7,15.7c6.8,3.5,11.3,10.8,19.1,12.3c1,0.7,1.9,1.5,2.9,2.2
	c-0.1,2-0.2,4.1-0.3,6.1c-17.6-6.2-36.3-7.3-54.8-8.7c-21.3,0.4-42.5-1.3-63.8-1.6c-16.9-0.5-33.9-0.7-50.9-0.7
	c-0.1-2.9-0.3-5.8-0.4-8.7c6.1-1,11.4-4.4,16.4-7.9c7.1-4.3,13.9-9.5,18.4-16.6c3-5.8,6.1-11.7,6.6-18.3c2.7-22.4,2.2-45,2.8-67.5
	c-0.1-24.7-0.2-49.3-0.9-74c-7-3.5-13.9-6.9-20.7-10.8c-3.8-0.2-7.1-2.1-10.2-4c-4-2.5-8.5-4.2-12.5-6.7c-2.9-1.1-6.1-1.5-8.6-3.5
	c-4.2-3-8.9-5.1-13.1-8.1c-6.2-3.2-9.8-9.4-14.5-14.2c-2.5-3-4.6-6.2-7.1-9.2c-2.4-7-8.3-12.1-10.9-19c-2.1-6-5.6-11.4-7.3-17.6
	c9-4.7,18.5-9.1,28.7-9.6c11.8-2.7,23.6-5.1,35.5-6.9c3.7-0.1,2.6,4.1,1.2,6c-4.4,2.5-9.2,4.6-13.3,7.6c-3.2,2.3-6.6,4.5-10.6,5.1
	c-6.1,4.2-12.7,7.8-18.5,12.6c2.6,2.4,5.1,4.8,7.4,7.5c2.5,3.1,6.8,3.4,9.5,6.2c6.6,6.4,15.7,9.1,23.1,14.5
	c3.2,2.3,6.8,4.2,10.7,5.4c9.9,3.8,18.7,13.2,30.1,11.2c0.3-22.6-0.5-45.2-1.2-67.8c-1.6-49.2-3.5-98.3-5.5-147.4
	c-0.8-13.4-0.3-26.8-0.5-40.2c0-3.7-1.9-7.1-3.8-10.2c-5.2-9.9-15.3-16.1-25.4-20.3c0.8-3.1,3.3-5.6,6.6-5.6
	c20.8,1.5,41.8,1,62.6,0.6c25.8-0.5,51.6-1.7,77.3-2.5c-0.1,2.7-0.4,5.4-0.7,8c-1.1,0.5-2.2,1.1-3.4,1.6c-3.3,4.3-7.4,8-9.9,12.9
	c-3.6,6.8-1.4,14.6-2.3,22c-0.5,31.2,0.4,62.4,0.2,93.7c-0.2,38.4,1.8,76.7,3.1,115c0.5,8.9,0.7,17.8,1.6,26.6
	c6-1.4,11.6-4,17.1-6.7c3.3-2.8,8-2.3,11.3-5.1c3.8-3.2,8.6-4.9,12.4-8.1c8.3-2,13.2-10.1,21.4-12.5c4.6-4,9.8-7.2,14.4-11.1
	c3.6-1.7,6.7-4.3,9.8-6.8c0.1-30.5,0-60.9,0.1-91.4c-1.2-46.7-3.7-93.4-7.7-140c-0.4-4.2-2.6-8-3.9-12c-3.5-2-6.8-4.4-10.5-6.2
	c-1.2-2.6-5.4-6.6-1.7-8.9c14,3.1,28.3,1.7,42.5,2.4c19.2,1,38.4-0.5,57.6-0.4c11.2-0.5,22.4-2.3,33.6-2.7c0.6,0.4,1.7,1.2,2.3,1.6
	c-3.2,4.1-7.6,7.3-9.8,12.1c-3.9,9-9,17.4-12.1,26.8c-3.4,24-3,48.2-3.2,72.4c-0.2,23.8,0.2,47.5,0.4,71.2
	c0.6,15.4,0.1,30.8,1.1,46.1c13.2-3.1,26.5-6.7,40.1-7.6c10.1-2.4,21.6-1.8,30.1,4.8c3,0.5,5.9,1.5,8.3,3.3
	c4.6,3.5,9.6,6.2,14.6,8.9c-0.9-9.4-2.2-18.7-1.9-28.2c-2.7-26.4-6.8-52.6-10.7-78.8c-0.8-4.7-0.2-9.6-0.8-14.3
	c-3.6-24.1-7-48.2-10.5-72.4c-0.8-4.8-0.1-9.7-0.8-14.5c-3.2-22-6.4-44-9.5-66.1C445.6,21.8,445.1,15.9,445.4,10z"/>
</svg>
